<svg width="78" height="807" viewBox="0 0 78 807" fill="none" xmlns="http://www.w3.org/2000/svg">
<path d="M0 -5.29682e-05H77.064V16.2933H45.2676V49.3691H77.064V65.6248H0V49.3691H31.8341V16.2933H0V-5.29682e-05ZM0 92.3413V74.8815L77.064 101.485V122.482L0 149.048V131.588L59.4537 112.285V111.683L0 92.3413ZM30.2913 91.25V132.491H17.5727V91.25H30.2913ZM77.064 223.835H0V207.73H63.8186V176.574H0V160.468H77.064V223.835ZM0 239.348H77.064V269.752C77.064 275.597 75.9477 280.577 73.715 284.691C71.5075 288.805 68.4344 291.941 64.4959 294.098C60.5825 296.281 56.0671 297.372 50.9495 297.372C45.832 297.372 41.3165 296.268 37.4031 294.06C33.4897 291.853 30.4418 288.654 28.2593 284.465C26.0768 280.301 24.9856 275.259 24.9856 269.338V249.959H38.0428V266.704C38.0428 269.84 38.5822 272.424 39.6609 274.456C40.7646 276.513 42.2823 278.043 44.214 279.046C46.1707 280.075 48.4159 280.589 50.9495 280.589C53.5083 280.589 55.741 280.075 57.6475 279.046C59.5791 278.043 61.0717 276.513 62.1253 274.456C63.204 272.399 63.7434 269.79 63.7434 266.629V255.641H0V239.348ZM0 312.339V294.879L77.064 321.483V342.479L0 369.045V351.586L59.4537 332.282V331.68L0 312.339ZM30.2913 311.247V352.489H17.5727V311.247H30.2913ZM0 378.321H77.064V409.177C77.064 414.846 76.2236 419.575 74.5429 423.363C72.8621 427.151 70.5291 429.998 67.5439 431.905C64.5837 433.811 61.1721 434.764 57.3088 434.764C54.2985 434.764 51.6519 434.162 49.3691 432.958C47.1114 431.754 45.255 430.098 43.8 427.991C42.3701 425.909 41.3542 423.526 40.7521 420.842H39.9995C39.8741 423.777 39.0463 426.524 37.516 429.082C35.9858 431.666 33.8409 433.761 31.0815 435.366C28.3471 436.972 25.0859 437.775 21.298 437.775C17.209 437.775 13.5589 436.759 10.3479 434.727C7.16204 432.72 4.6409 429.747 2.78454 425.809C0.92818 421.87 0 417.016 0 411.246V378.321ZM13.3206 394.614V407.897C13.3206 412.438 14.1861 415.749 15.917 417.831C17.673 419.913 20.006 420.955 22.916 420.955C25.0483 420.955 26.9298 420.44 28.5603 419.412C30.1909 418.383 31.4703 416.916 32.3985 415.009C33.3267 413.128 33.7908 410.883 33.7908 408.274V394.614H13.3206ZM44.816 394.614V406.693C44.816 408.926 45.2049 410.908 45.9825 412.639C46.7853 414.395 47.9141 415.774 49.3691 416.778C50.8241 417.806 52.5676 418.32 54.5995 418.32C57.3841 418.32 59.6293 417.33 61.3351 415.348C63.041 413.391 63.8939 410.607 63.8939 406.994V394.614H44.816ZM0 444.2H13.0949L13.283 446.382C13.5088 449.192 14.5749 451.462 16.4815 453.193C18.4131 454.924 21.4861 456.216 25.7005 457.069C29.9401 457.947 35.6346 458.511 42.7841 458.762L77.064 460.042V512.346H0V496.504H64.0068V475.168L37.1774 473.964C28.5478 473.563 21.4986 472.534 16.0299 470.879C10.5612 469.248 6.52234 466.639 3.91341 463.052C1.30447 459.49 0 454.61 0 448.414V444.2ZM0 525.779H77.064V577.707H63.6305V542.073H45.2676V575.035H31.8341V542.073H13.4335V577.858H0V525.779ZM0 590.661H77.064V606.954H45.2676V640.03H77.064V656.286H0V640.03H31.8341V606.954H0V590.661ZM77.064 669.719V685.975H28.598V686.615L77.064 719.916V734.178H0V717.884H48.5037V717.32L0 683.83V669.719H77.064ZM0 806.792V790.536H63.7434V779.549C63.7434 776.413 63.2793 773.804 62.3511 771.722C61.448 769.665 60.1185 768.122 58.3624 767.093C56.6064 766.065 54.449 765.551 51.8903 765.551C49.3566 765.551 47.2368 766.065 45.531 767.093C43.8251 768.122 42.5457 769.665 41.6928 771.722C40.8399 773.779 40.4134 776.363 40.4134 779.473V797.159H27.3186V776.839C27.3186 770.944 28.2969 765.902 30.2536 761.712C32.2103 757.523 35.02 754.325 38.6825 752.117C42.3701 749.91 46.7727 748.806 51.8903 748.806C56.9827 748.806 61.4104 749.884 65.1733 752.042C68.9612 754.224 71.8838 757.373 73.9408 761.487C76.0229 765.626 77.064 770.605 77.064 776.425V806.792H0ZM35.0701 765.212V782.785L0 764.045V746.059L35.0701 765.212Z" fill="#152E6F"/>
</svg>
