<svg width="1129" height="185" viewBox="0 0 1129 185" fill="none" xmlns="http://www.w3.org/2000/svg">
<path fill-rule="evenodd" clip-rule="evenodd" d="M41.2851 150.187H148.55V135.692H177.547V150.187V164.682V179.177H0.752332V151.153L0 150.448L63.1412 91.1432L0 31.8387L0.752332 31.1331V3.43994H177.547V17.9345V32.4305V46.9251H148.55V32.4305H41.6373L83.646 71.8851L104.15 91.1432L83.646 110.401L41.2851 150.187Z" fill="#273972"/>
<path d="M286.397 92.5805C286.397 101.154 287.878 109.103 290.841 116.428C293.802 123.753 297.856 130.106 303 135.482C308.146 140.859 314.264 145.068 321.357 148.107C328.452 151.147 336.208 152.666 344.626 152.666C363.491 152.666 379.003 144.328 391.164 127.651L419.928 146.587C409.639 159.991 398.219 169.695 385.667 175.696C373.118 181.696 359.281 184.697 344.159 184.697C331.219 184.697 319.098 182.396 307.795 177.799C296.492 173.201 286.629 166.811 278.211 158.628C269.792 150.445 263.128 140.743 258.216 129.52C253.305 118.298 250.85 105.986 250.85 92.5805V92.1133C250.85 78.7092 253.305 66.397 258.216 55.174C263.128 43.9523 269.792 34.25 278.211 26.067C286.629 17.8854 296.492 11.4943 307.795 6.89658C319.098 2.29749 331.219 0 344.159 0C359.281 0 373.118 3.00029 385.667 9.00089C398.219 15.0015 409.639 24.7025 419.928 38.1079L391.164 57.0454C379.003 40.3684 363.491 32.0292 344.626 32.0292C336.208 32.0292 328.452 33.5486 321.357 36.5872C314.264 39.6273 308.146 43.8359 303 49.2131C297.856 54.5904 293.802 60.9417 290.841 68.2671C287.878 75.5925 286.397 83.5412 286.397 92.1133V92.5805Z" fill="#273972"/>
<path d="M581.288 3.27295H604.909V179.552H570.297L570.766 62.1884L467.166 179.552H444.717V3.27295H479.092L478.158 120.402L581.288 3.27295Z" fill="#273972"/>
<path d="M640.453 179.552V3.27295H735.634V34.835H675.534V179.552H640.453Z" fill="#273972"/>
<path d="M845.079 117.831L901.205 3.27295H936.282V179.552H901.205V78.0859L852.561 179.552H837.595L788.954 78.0859V179.552H753.875V3.27295H788.954L845.079 117.831Z" fill="#273972"/>
<path d="M1028.45 3.27295H1053.24L1128.08 179.552H1091.66L1086.28 166.699H993.649L988.463 179.552H951.28L1028.45 3.27295ZM1074.69 137.71L1053.48 86.9704C1051.04 81.1465 1049.11 75.2021 1046.93 69.4357C1044.74 63.6694 1042.56 57.8236 1040.38 51.9011C1038.2 57.8236 1035.97 63.6694 1033.71 69.4357C1031.45 75.1993 1029.05 81.041 1026.58 86.9704L1005.46 137.71H1074.69Z" fill="#273972"/>
</svg>
